<?xml version="1.0" encoding="UTF-8"?>
<svg xmlns="http://www.w3.org/2000/svg" xmlns:xlink="http://www.w3.org/1999/xlink" width="67px" height="96px" viewBox="0 0 67 95" version="1.1">
<g id="surface1">
<path style=" stroke:none;fill-rule:nonzero;fill:rgb(0%,0%,0%);fill-opacity:1;" d="M 47.636719 2.375 C 48.417969 3.335938 48.816406 4.632812 49.613281 7.226562 L 67 63.871094 C 60.570312 60.5625 53.582031 58.179688 46.210938 56.890625 L 34.890625 18.949219 C 34.707031 18.328125 34.132812 17.902344 33.480469 17.902344 C 32.824219 17.902344 32.25 18.332031 32.066406 18.953125 L 20.882812 56.871094 C 13.476562 58.152344 6.457031 60.542969 0 63.863281 L 17.472656 7.210938 C 18.269531 4.621094 18.671875 3.328125 19.449219 2.371094 C 20.140625 1.523438 21.035156 0.867188 22.054688 0.460938 C 23.207031 0 24.570312 0 27.300781 0 L 39.78125 0 C 42.511719 0 43.878906 0 45.035156 0.460938 C 46.054688 0.867188 46.949219 1.527344 47.636719 2.375 Z M 47.636719 2.375 "/>
<path style=" stroke:none;fill-rule:nonzero;fill:rgb(100%,36.470588%,0.392157%);fill-opacity:1;" d="M 49.71875 66.566406 C 46.851562 69 41.132812 70.65625 34.542969 70.65625 C 26.453125 70.65625 19.675781 68.160156 17.875 64.800781 C 17.230469 66.726562 17.089844 68.929688 17.089844 70.335938 C 17.089844 70.335938 16.664062 77.246094 21.511719 82.050781 C 21.511719 79.554688 23.550781 77.53125 26.066406 77.53125 C 30.378906 77.53125 30.375 81.265625 30.371094 84.292969 C 30.371094 84.382812 30.371094 84.472656 30.371094 84.5625 C 30.371094 89.160156 33.203125 93.097656 37.230469 94.757812 C 36.628906 93.53125 36.292969 92.152344 36.292969 90.695312 C 36.292969 86.3125 38.886719 84.683594 41.902344 82.785156 C 44.300781 81.277344 46.964844 79.601562 48.804688 76.234375 C 49.761719 74.480469 50.304688 72.472656 50.304688 70.335938 C 50.304688 69.023438 50.101562 67.753906 49.71875 66.566406 Z M 49.71875 66.566406 "/>
</g>
</svg>
